<?xml version="1.0" encoding="UTF-8"?>
<svg id="Layer_2" data-name="Layer 2" xmlns="http://www.w3.org/2000/svg" viewBox="0 0 54.89 18.04">
  <defs>
    <style>
      .cls-1, .cls-2 {
        fill: #fff;
      }

      .cls-2 {
        stroke: #000;
        stroke-miterlimit: 10;
        stroke-width: .25px;
      }
    </style>
  </defs>
  <g id="Layer_1-2" data-name="Layer 1">
    <g>
      <path class="cls-2" d="M8.11,11.45h-.76L3.3,4.35l-1.21,6.95H.15L2.17.31h.9l3.97,6.81L8.23.31h1.93l-2.05,11.14Z"/>
      <path class="cls-2" d="M19,2.02h-5.06l-.46,2.53h3.63l-.31,1.64h-3.63l-.62,3.41h4.98l-.32,1.71h-6.99L12.24.31h7.08l-.32,1.71Z"/>
      <path class="cls-2" d="M27.64,11.45h-.79l-1.19-6.71-3.56,6.71h-.79L19.75.31h1.99l.83,6.66L26.04.31h.85l1.02,6.62L31.12.31h2.12l-5.6,11.14Z"/>
      <path class="cls-2" d="M39.38,2.48c-.58-.42-1.17-.64-1.77-.64-1.21,0-1.81.46-1.81,1.37,0,.39.32.85.96,1.38l1.13.96c.35.3.59.52.73.66.13.14.28.33.43.57.15.25.26.49.34.74.08.25.11.51.11.77,0,1.01-.38,1.79-1.13,2.36-.75.57-1.73.85-2.93.85-.99,0-1.91-.21-2.79-.64l.63-1.93c.67.51,1.45.76,2.33.76.54,0,.98-.11,1.33-.34.35-.23.53-.55.53-.97s-.32-.87-.96-1.37l-1.18-.94c-.36-.29-.6-.5-.73-.63-.13-.13-.26-.31-.4-.54-.14-.23-.25-.47-.32-.72-.07-.25-.11-.5-.11-.76,0-1.01.34-1.81,1.01-2.4.67-.59,1.55-.89,2.63-.89.36,0,.82.04,1.38.12.56.08.95.18,1.18.28l-.6,1.95Z"/>
    </g>
    <g>
      <path class="cls-1" d="M10.19,17.97h-.91l.58-3.13h-.49l.15-.72h1.39l-.72,3.85ZM9.92,12.88c0-.16.06-.29.17-.4.11-.11.25-.16.42-.16s.3.05.41.16c.12.11.17.24.17.4s-.06.29-.17.4c-.12.11-.25.16-.41.16s-.3-.05-.41-.16c-.12-.11-.17-.24-.17-.4Z"/>
      <path class="cls-1" d="M14.57,17.97h-.93l.42-2.24c.03-.18.05-.33.05-.45,0-.32-.19-.48-.56-.48-.32,0-.61.14-.87.41l-.51,2.77h-.9l.54-2.89c0-.05.01-.12.01-.21,0-.21-.03-.44-.1-.68l.88-.16.08.43c.32-.28.71-.41,1.19-.41.79,0,1.19.37,1.19,1.11,0,.13-.02.29-.05.47l-.43,2.34Z"/>
      <path class="cls-1" d="M18.33,14.84h-1.06l-.39,1.71c-.03.14-.05.25-.05.34,0,.26.15.4.45.4.13,0,.35-.06.65-.19v.81c-.26.09-.61.13-1.06.13-.29,0-.53-.09-.71-.27-.18-.18-.27-.42-.27-.71,0-.1.01-.19.03-.28l.43-1.93h-.45l.15-.72h.45l.15-.79,1.03-.37-.27,1.16h1.05l-.16.72Z"/>
      <path class="cls-1" d="M19.76,16.3c0,.06,0,.12,0,.16,0,.27.08.47.24.62.16.14.38.22.66.22.15,0,.33-.04.52-.12.2-.08.35-.18.46-.28l-.1.95c-.3.14-.68.21-1.11.21-.47,0-.86-.15-1.15-.45-.29-.3-.44-.71-.44-1.23,0-.66.21-1.21.64-1.65.43-.44.98-.66,1.67-.66.41,0,.73.09.99.26.25.17.38.42.38.74,0,.43-.19.77-.56,1.02-.37.25-.84.37-1.39.37-.27,0-.53-.04-.79-.13ZM19.94,15.62c.16.05.33.07.51.07.33,0,.6-.05.83-.15.23-.1.34-.24.34-.43,0-.21-.23-.31-.68-.31-.18,0-.36.08-.55.24-.19.16-.33.35-.44.59Z"/>
      <path class="cls-1" d="M25.72,15.03c-.21-.16-.4-.24-.56-.24-.23,0-.45.1-.64.3-.19.2-.31.43-.36.7l-.41,2.18h-.9l.72-3.85h.9l-.06.33c.32-.27.67-.41,1.06-.41.1,0,.27.02.53.07l-.27.92Z"/>
      <path class="cls-1" d="M29.29,17.97h-.93l.42-2.24c.03-.18.05-.33.05-.45,0-.32-.19-.48-.56-.48-.32,0-.61.14-.87.41l-.51,2.77h-.9l.54-2.89c0-.05.01-.12.01-.21,0-.21-.03-.44-.1-.68l.88-.16.08.43c.32-.28.71-.41,1.19-.41.79,0,1.19.37,1.19,1.11,0,.13-.02.29-.05.47l-.43,2.34Z"/>
      <path class="cls-1" d="M33.58,16.59c-.02.09-.03.19-.03.29,0,.53.04.89.12,1.09h-.56c-.17,0-.29-.13-.37-.38-.31.3-.69.46-1.15.46-.42,0-.74-.12-.97-.35-.23-.23-.34-.56-.34-.98,0-.73.22-1.36.66-1.88.44-.52,1-.78,1.67-.78s1.12.06,1.41.18l-.45,2.36ZM32.54,14.78c-.4,0-.72.19-.96.58-.24.38-.36.83-.36,1.33,0,.41.2.62.61.62.26,0,.49-.16.68-.48.19-.32.37-.98.52-1.98-.17-.05-.33-.07-.48-.07Z"/>
      <path class="cls-1" d="M37.41,14.84h-1.06l-.39,1.71c-.03.14-.05.25-.05.34,0,.26.15.4.45.4.13,0,.35-.06.65-.19v.81c-.26.09-.61.13-1.06.13-.29,0-.53-.09-.7-.27-.18-.18-.27-.42-.27-.71,0-.1.01-.19.03-.28l.43-1.93h-.45l.15-.72h.45l.15-.79,1.03-.37-.27,1.16h1.05l-.16.72Z"/>
      <path class="cls-1" d="M39.04,17.97h-.91l.58-3.13h-.49l.15-.72h1.39l-.72,3.85ZM38.78,12.88c0-.16.06-.29.17-.4.11-.11.25-.16.42-.16s.3.05.41.16c.12.11.17.24.17.4s-.06.29-.17.4c-.12.11-.25.16-.41.16s-.3-.05-.41-.16c-.12-.11-.17-.24-.17-.4Z"/>
      <path class="cls-1" d="M40.28,16.53c0-.69.21-1.28.64-1.76.42-.48.96-.72,1.61-.72.5,0,.88.13,1.15.39s.4.62.4,1.1c0,.71-.21,1.31-.63,1.79-.42.48-.96.72-1.63.72-.49,0-.87-.13-1.14-.39-.27-.26-.41-.63-.41-1.12ZM41.22,16.49c0,.55.24.82.71.82.37,0,.67-.17.89-.52.22-.35.33-.76.33-1.23,0-.52-.24-.78-.71-.78-.37,0-.66.17-.88.51-.22.34-.33.74-.33,1.19Z"/>
      <path class="cls-1" d="M47.63,17.97h-.93l.42-2.24c.03-.18.05-.33.05-.45,0-.32-.19-.48-.56-.48-.32,0-.61.14-.87.41l-.51,2.77h-.9l.54-2.89c0-.05.01-.12.01-.21,0-.21-.03-.44-.1-.68l.88-.16.08.43c.32-.28.71-.41,1.19-.41.79,0,1.19.37,1.19,1.11,0,.13-.02.29-.05.47l-.43,2.34Z"/>
      <path class="cls-1" d="M51.91,16.59c-.02.09-.03.19-.03.29,0,.53.04.89.12,1.09h-.56c-.17,0-.29-.13-.37-.38-.31.3-.69.46-1.15.46-.42,0-.74-.12-.97-.35-.23-.23-.34-.56-.34-.98,0-.73.22-1.36.66-1.88.44-.52,1-.78,1.67-.78s1.12.06,1.41.18l-.45,2.36ZM50.87,14.78c-.4,0-.72.19-.96.58-.24.38-.36.83-.36,1.33,0,.41.2.62.61.62.26,0,.49-.16.68-.48.19-.32.37-.98.52-1.98-.17-.05-.33-.07-.48-.07Z"/>
      <path class="cls-1" d="M54.44,17.67c-.14.23-.36.34-.64.34-.22,0-.39-.07-.51-.21-.12-.14-.19-.32-.19-.55,0-.29.06-.71.17-1.26l.72-3.44h.89l-.74,3.59c-.11.51-.16.88-.16,1.09,0,.14.04.25.13.33.09.08.19.12.32.12Z"/>
    </g>
  </g>
</svg>