<?xml version="1.0" encoding="UTF-8"?>
<svg id="Layer_2" data-name="Layer 2" xmlns="http://www.w3.org/2000/svg" viewBox="0 0 79.16 25.08">
  <defs>
    <style>
      .cls-1 {
        fill: #fff;
      }
    </style>
  </defs>
  <g id="Layer_1-2" data-name="Layer 1">
    <g>
      <path class="cls-1" d="M36.89.48c.11,0,.2.04.28.12.08.08.12.17.12.28v2.37c0,.11-.04.2-.12.28-.08.08-.17.12-.28.12h-2.44v6.73c0,.11-.04.2-.12.28-.08.08-.17.12-.28.12h-2.94c-.11,0-.2-.04-.28-.12-.08-.08-.12-.17-.12-.28V3.64h-2.44c-.11,0-.2-.04-.28-.12-.08-.08-.12-.17-.12-.28V.88c0-.11.04-.2.12-.28.08-.08.17-.12.28-.12h8.62Z"/>
      <path class="cls-1" d="M47.8,4.36c.02.42.03.86.03,1.31s0,.88-.03,1.28c-.03.66-.17,1.23-.41,1.73-.25.5-.58.91-1.01,1.24-.43.33-.94.58-1.53.75-.59.17-1.25.25-1.96.25s-1.38-.08-1.97-.25c-.59-.17-1.1-.42-1.52-.75-.43-.33-.76-.75-1.01-1.24-.25-.49-.38-1.07-.41-1.73-.02-.4-.03-.83-.03-1.28s0-.89.03-1.31c.03-.65.17-1.22.41-1.72.25-.5.58-.92,1.01-1.26.43-.34.93-.6,1.52-.78.59-.18,1.24-.26,1.97-.26s1.37.09,1.96.26c.59.18,1.1.44,1.53.78.43.34.76.76,1.01,1.26.24.5.38,1.07.41,1.72ZM41.8,6.86c.02.41.12.71.32.9.19.19.45.29.77.29s.58-.1.77-.29c.19-.19.3-.49.32-.9.03-.83.03-1.66,0-2.47-.02-.41-.13-.71-.32-.9-.2-.19-.45-.29-.76-.29s-.57.09-.76.29c-.2.19-.3.49-.32.9-.03.81-.03,1.64,0,2.47Z"/>
      <path class="cls-1" d="M53.79.48c.69,0,1.32.09,1.91.26.59.18,1.1.43,1.54.77s.78.76,1.04,1.26c.25.5.4,1.08.43,1.74,0,.2.01.4.01.58v1.05c0,.18,0,.36-.01.56-.03.7-.17,1.3-.41,1.81-.25.51-.58.93-1,1.26-.42.33-.92.58-1.5.74-.58.16-1.22.24-1.93.24h-4.31c-.11,0-.2-.04-.28-.12-.08-.08-.12-.17-.12-.28V.88c0-.11.04-.2.12-.28.08-.08.17-.12.28-.12h4.23ZM54.96,4.52c-.02-.41-.15-.71-.39-.9-.24-.19-.53-.28-.86-.28h-.88v4.56h.96c.32,0,.6-.1.82-.29.22-.19.34-.49.36-.9,0-.21.02-.4.02-.58,0-.18,0-.36,0-.53s0-.34,0-.51c0-.17-.01-.36-.02-.57Z"/>
      <path class="cls-1" d="M66.11.48c.2,0,.35.05.46.16.11.11.18.22.21.32l3.28,9.38s.01.06.01.1c0,.09-.03.16-.1.23-.06.06-.14.1-.23.1h-2.72c-.2,0-.33-.04-.41-.12-.08-.08-.13-.16-.16-.24l-.35-.97h-3.16l-.35.97c-.03.08-.08.16-.16.24-.08.08-.22.12-.41.12h-2.72c-.09,0-.16-.03-.23-.1-.06-.06-.1-.14-.1-.23,0-.04,0-.07.01-.1l3.28-9.38c.03-.11.1-.21.21-.32.11-.11.26-.16.46-.16h3.19ZM65.34,6.57l-.84-2.73-.82,2.73h1.66Z"/>
      <path class="cls-1" d="M72.55,10.77c-.11,0-.2-.04-.28-.12-.08-.08-.12-.17-.12-.28v-2.9l-3.31-6.54s-.03-.08-.03-.13c0-.09.03-.16.1-.23.06-.06.14-.09.23-.09h2.76c.2,0,.34.05.44.15.1.1.16.17.18.22l1.47,2.96,1.47-2.96s.08-.12.18-.22c.1-.1.25-.15.44-.15h2.76c.09,0,.16.03.23.09.06.06.1.14.1.23,0,.05,0,.09-.03.13l-3.31,6.54v2.9c0,.11-.04.2-.12.28-.08.08-.17.12-.28.12h-2.88Z"/>
    </g>
    <g>
      <path class="cls-1" d="M39.21,12.68c.13,0,.24.05.33.14.09.09.14.2.14.33v11.26c0,.13-.05.24-.14.33-.09.09-.2.14-.33.14h-2.75c-.23,0-.4-.05-.51-.16-.1-.1-.17-.19-.21-.24l-2.95-4.45v4.38c0,.13-.05.24-.14.33-.09.09-.2.14-.33.14h-3.16c-.13,0-.24-.05-.33-.14-.09-.09-.14-.2-.14-.33v-11.26c0-.13.05-.24.14-.33.09-.09.2-.14.33-.14h2.75c.23,0,.4.05.51.16s.17.19.21.24l2.95,4.83v-4.76c0-.13.05-.24.14-.33.09-.09.2-.14.33-.14h3.16Z"/>
      <path class="cls-1" d="M51.15,21.48c.13,0,.24.05.33.14.09.09.14.2.14.33v2.46c0,.13-.05.24-.14.33-.09.09-.2.14-.33.14h-9.08c-.13,0-.24-.05-.33-.14-.09-.09-.14-.2-.14-.33v-11.26c0-.13.05-.24.14-.33.09-.09.2-.14.33-.14h8.94c.13,0,.24.05.33.14.09.09.14.2.14.33v2.46c0,.13-.05.24-.14.33-.09.09-.2.14-.33.14h-5.23v1.1h4.85c.13,0,.24.05.33.14.09.09.14.2.14.33v2.27c0,.13-.05.24-.14.33-.09.09-.2.14-.33.14h-4.85v1.1h5.37Z"/>
      <path class="cls-1" d="M59.73,20.84l-1.43,3.57c-.02.07-.09.17-.2.29-.11.12-.28.18-.51.18h-2.49c-.23,0-.42-.07-.56-.21-.14-.14-.22-.29-.24-.45l-1.6-11.1v-.05c0-.1.04-.19.11-.27.08-.08.17-.11.27-.11h3.24c.2,0,.35.03.44.1.1.07.16.19.18.37l.59,4.92.71-2.18c.02-.08.08-.19.16-.31.08-.13.23-.19.44-.19h1.78c.21,0,.35.06.44.19.08.13.13.23.16.31l.71,2.16.59-4.9c.02-.17.08-.3.18-.37.1-.07.25-.1.44-.1h3.24c.1,0,.19.04.27.11.08.08.11.17.11.27v.05l-1.6,11.1c-.02.16-.1.31-.24.45-.14.14-.33.21-.56.21h-2.49c-.23,0-.4-.06-.51-.18-.11-.12-.18-.22-.2-.29l-1.43-3.57Z"/>
      <path class="cls-1" d="M73.12,12.51c.87,0,1.64.12,2.32.35.67.23,1.24.53,1.71.89.46.36.82.75,1.06,1.17.24.42.37.82.38,1.2,0,.1-.04.2-.11.27-.08.08-.16.11-.25.11h-3.49c-.16,0-.29-.02-.39-.07-.1-.05-.2-.12-.31-.21-.06-.06-.17-.12-.32-.2-.16-.08-.36-.11-.6-.11-.3,0-.52.04-.64.13-.13.09-.19.21-.19.36,0,.08.03.16.08.23.05.07.15.14.3.2.14.06.34.12.59.17.25.05.57.1.97.15.87.1,1.61.26,2.22.45.61.2,1.11.45,1.49.76.38.31.66.67.84,1.1.17.42.26.92.26,1.49,0,.64-.15,1.21-.44,1.72-.3.5-.7.94-1.22,1.29-.52.35-1.13.63-1.83.82-.7.19-1.47.29-2.29.29-.96,0-1.8-.1-2.52-.3s-1.31-.48-1.78-.82c-.47-.34-.83-.74-1.06-1.19-.24-.45-.36-.92-.37-1.4,0-.1.04-.19.11-.27.08-.08.17-.11.27-.11h3.31c.19,0,.33.03.42.08.09.05.2.12.33.22.16.13.35.23.55.3.2.07.45.1.74.1.4,0,.71-.04.95-.12.24-.08.36-.2.36-.37,0-.21-.16-.37-.48-.48-.32-.11-.91-.22-1.77-.34-.69-.09-1.31-.24-1.87-.43-.56-.19-1.03-.44-1.42-.76-.39-.31-.69-.69-.9-1.12-.21-.44-.31-.94-.31-1.53s.13-1.14.38-1.63c.26-.49.62-.92,1.08-1.26.46-.35,1.03-.62,1.68-.82.66-.2,1.38-.3,2.17-.3Z"/>
    </g>
    <path class="cls-1" d="M13.34,11.47l-2.98-4.87c-.03-.06-.1-.15-.21-.25s-.27-.16-.52-.16h-2.77c-.14,0-.24.06-.34.15-.09.09-.14.21-.14.33v18.42H2.14c-1.18,0-2.14-.96-2.14-2.14V2.15C0,.96.96,0,2.14,0h11.2v11.47Z"/>
    <path class="cls-1" d="M23.86,2.15v20.79c0,1.18-.96,2.14-2.14,2.14h-11.19v-11.47l2.98,4.49c.03.06.1.14.21.24.11.1.27.16.52.16h2.78c.13,0,.24-.05.33-.14.09-.09.14-.21.14-.33V0h4.24c1.18,0,2.14.96,2.14,2.15Z"/>
  </g>
</svg>