<?xml version="1.0" encoding="UTF-8"?>
<svg id="Layer_2" data-name="Layer 2" xmlns="http://www.w3.org/2000/svg" viewBox="0 0 73.98 40.32">
  <defs>
    <style>
      .cls-1 {
        fill: #fff;
      }
    </style>
  </defs>
  <g id="Layer_1-2" data-name="Layer 1">
    <path class="cls-1" d="M70.97,0H10.35c-1.24,0-2.35.82-2.72,2L.13,26.08c-.58,1.84.79,3.69,2.72,3.69h42.37l.71-3.13c.43-1.89,2.11-3.23,4.05-3.23h17.01c.18,0,.36.01.53.05l6.16-19.75c.58-1.84-.79-3.71-2.72-3.71ZM20.33,19.55l-2.61-5.56-1.5,5.56h-2.66l2.59-9.67h2.51l2.5,5.38,1.45-5.38h2.66l-2.59,9.67h-2.35ZM34.35,12.16h-5.09l-.4,1.47h4.62l-.56,2.11h-4.62l-.41,1.53h5.17l-.61,2.28h-7.82l2.6-9.67h7.75l-.62,2.28ZM45.16,19.61h-2.41l-.44-5.49-3.38,5.49h-2.38l-.62-9.74h2.77l.17,5.59,3.35-5.62h2.31l.38,5.62,3.17-5.59h2.91l-5.84,9.74ZM55.58,13.67c1.5.56,2.51,1.24,2.51,2.69,0,1.99-1.7,3.34-4.11,3.34-1.89,0-3.45-.64-4.49-1.76l1.73-1.78c.94.87,1.92,1.31,2.98,1.31.63,0,1.09-.28,1.09-.71,0-.38-.26-.56-1.61-1.09-1.54-.58-2.52-1.24-2.52-2.66,0-1.92,1.74-3.29,4.11-3.29,1.69,0,3.03.55,3.96,1.44l-1.66,1.85c-.74-.64-1.58-1.07-2.56-1.07-.64,0-1.05.31-1.05.69s.29.53,1.61,1.05Z"/>
    <path class="cls-1" d="M53.78,31.29v.1h3.33v-.1h-3.33ZM66.27,31.08c-.39-.79-1.19-1.3-2.21-1.3h-1.39v4.94h1.39c1.46,0,2.46-1,2.46-2.47,0-.44-.09-.83-.25-1.16ZM66.27,31.08c-.39-.79-1.19-1.3-2.21-1.3h-1.39v4.94h1.39c1.46,0,2.46-1,2.46-2.47,0-.44-.09-.83-.25-1.16ZM53.78,31.39h3.33v-.1h-3.33v.1ZM66.27,31.08c-.39-.79-1.19-1.3-2.21-1.3h-1.39v4.94h1.39c1.46,0,2.46-1,2.46-2.47,0-.44-.09-.83-.25-1.16ZM66.27,31.08c-.39-.79-1.19-1.3-2.21-1.3h-1.39v4.94h1.39c1.46,0,2.46-1,2.46-2.47,0-.44-.09-.83-.25-1.16Z"/>
    <path class="cls-1" d="M73.93,35.56l-1.06-7.09c-.29-1.85-1.76-3.28-3.59-3.5-.17-.03-.35-.05-.53-.05h-17.75c-1.95,0-3.63,1.35-4.05,3.23l-.71,3.13-.91,3.96c-.6,2.6,1.38,5.08,4.05,5.08h20.43c2.54,0,4.49-2.26,4.12-4.77ZM58.9,36.34h-1.8v-3.29h-3.33v3.29h-1.8v-8.18h1.8v3.23h3.33v-3.23h1.8v8.18ZM64.06,36.34h-3.19v-8.18h3.19c1.58,0,2.85.67,3.6,1.72.47.67.74,1.47.74,2.37,0,2.3-1.77,4.1-4.34,4.1Z"/>
  </g>
</svg>