<?xml version="1.0" encoding="UTF-8"?>
<svg id="Layer_2" data-name="Layer 2" xmlns="http://www.w3.org/2000/svg" viewBox="0 0 93.48 17.02">
  <defs>
    <style>
      .cls-1, .cls-2 {
        fill: #fff;
      }

      .cls-2 {
        stroke: #fff;
        stroke-miterlimit: 10;
        stroke-width: .75px;
      }
    </style>
  </defs>
  <g id="Layer_1-2" data-name="Layer 1">
    <polygon class="cls-1" points="19.01 16.54 10.92 16.54 12.41 0 20.5 0 19.01 16.54"/>
    <polygon class="cls-1" points="89.02 17.02 71.04 16.74 73.05 .2 93.48 .2 89.02 17.02"/>
    <polygon class="cls-1" points="8.49 16.54 4.45 16.54 5.94 0 9.98 0 8.49 16.54"/>
    <polygon class="cls-1" points="2.02 16.54 0 16.54 1.49 0 3.51 0 2.02 16.54"/>
    <g>
      <path class="cls-2" d="M30.3,4.27l-.05.42h-1.65l.06-.51c.15-1.4-.29-2.23-1.54-2.23s-1.87.82-2.02,2.2c-.38,3.49,4.81,3.83,4.33,8.21-.26,2.36-1.56,3.89-3.94,3.89s-3.32-1.54-3.07-3.89l.1-.89h1.62l-.11.98c-.15,1.4.33,2.23,1.58,2.23s1.91-.82,2.07-2.23c.38-3.47-4.79-3.8-4.31-8.19.26-2.4,1.54-3.89,3.87-3.89s3.3,1.54,3.04,3.89Z"/>
      <path class="cls-2" d="M36.98.53c2.45,0,3.33,1.45,3.08,3.81l-.2,1.87c-.27,2.47-1.57,3.76-4.04,3.76h-1.54l-.67,6.14h-1.74l1.71-15.58h3.4ZM35.99,8.41c1.29,0,1.98-.6,2.14-2.09l.23-2.07c.16-1.42-.28-2.14-1.55-2.14h-1.67l-.69,6.3h1.54Z"/>
      <path class="cls-2" d="M42.69,4.29c.26-2.38,1.61-3.92,3.99-3.92s3.41,1.54,3.15,3.92l-.88,8.05c-.26,2.36-1.61,3.92-4.01,3.92s-3.39-1.56-3.13-3.92l.88-8.05ZM43.51,12.44c-.16,1.42.35,2.25,1.6,2.25s1.94-.82,2.09-2.25l.9-8.23c.15-1.4-.33-2.25-1.6-2.25s-1.94.85-2.09,2.25l-.9,8.23Z"/>
      <path class="cls-2" d="M56.69.53c2.45,0,3.33,1.25,3.08,3.56l-.14,1.27c-.19,1.71-.91,2.78-2.29,3.21,1.38.42,1.79,1.58,1.6,3.25l-.27,2.43c-.08.69-.12,1.33.11,1.87h-1.76c-.15-.45-.2-.85-.08-1.89l.27-2.45c.19-1.76-.57-2.31-2.02-2.31h-1.22l-.73,6.65h-1.74l1.71-15.58h3.47ZM55.44,7.88c1.38,0,2.25-.45,2.44-2.14l.16-1.49c.15-1.4-.28-2.14-1.57-2.14h-1.69l-.63,5.76h1.29Z"/>
      <path class="cls-2" d="M63.89,16.11l1.53-14h-2.87l.17-1.58h7.48l-.17,1.58h-2.87l-1.53,14h-1.74Z"/>
    </g>
    <g>
      <path class="cls-2" d="M76.19,14.76l1.21-11.09h-2.27l.14-1.25h5.92l-.14,1.25h-2.27l-1.21,11.09h-1.37Z"/>
      <path class="cls-2" d="M84.24,2.43l.83,10.73,3.17-10.73h1.27l-3.66,12.34h-2.03l-.97-12.34h1.39Z"/>
    </g>
  </g>
</svg>